<?xml version="1.0" standalone="no"?>
<!DOCTYPE svg PUBLIC "-//W3C//DTD SVG 20010904//EN"
 "http://www.w3.org/TR/2001/REC-SVG-20010904/DTD/svg10.dtd">
<svg version="1.0" xmlns="http://www.w3.org/2000/svg"
 width="306.000000pt" height="306.000000pt" viewBox="0 0 306.000000 306.000000"
 preserveAspectRatio="xMidYMid meet">
<metadata>
Created by potrace 1.16, written by Peter Selinger 2001-2019
</metadata>
<g transform="translate(0.000000,306.000000) scale(0.100000,-0.100000)"
fill="#000000" stroke="none">
<path d="M1662 2912 c-61 -22 -121 -76 -160 -142 -14 -25 -26 -46 -27 -48 -1
-1 -47 -9 -101 -17 -122 -19 -185 -48 -251 -118 -65 -68 -90 -119 -111 -220
l-17 -80 -89 -18 c-163 -33 -273 -106 -324 -217 -23 -49 -27 -74 -30 -172 l-4
-116 -60 -34 c-80 -46 -117 -84 -153 -156 -29 -58 -30 -63 -30 -205 0 -144 1
-146 33 -212 57 -116 169 -206 296 -238 26 -6 50 -19 55 -28 5 -9 12 -47 16
-86 4 -38 19 -146 35 -238 33 -202 69 -287 150 -360 79 -71 88 -72 545 -72
519 1 564 7 662 98 79 73 90 115 129 482 l18 170 92 88 c51 48 107 109 124
135 32 47 32 47 28 162 -3 112 -4 117 -41 182 l-37 67 39 78 c75 148 76 252 3
373 l-38 62 78 78 c45 44 86 97 98 122 43 98 51 279 15 348 -26 50 -115 133
-171 161 -36 17 -71 24 -136 27 -80 4 -92 2 -152 -26 l-65 -30 -30 52 c-74
131 -249 198 -389 148z m150 -62 c56 -16 130 -80 182 -158 64 -97 67 -99 118
-72 24 13 57 30 73 39 17 8 55 17 86 19 154 11 294 -143 275 -302 -9 -82 -59
-170 -124 -222 -58 -45 -225 -136 -321 -174 l-53 -21 -45 31 c-56 37 -140 68
-216 82 -31 6 -68 19 -82 30 -58 45 -137 231 -156 365 -23 168 44 315 171 372
53 24 46 23 92 11z m-362 -274 c0 -112 48 -292 111 -418 32 -64 36 -88 14 -88
-8 0 -15 -7 -15 -15 0 -14 14 -20 185 -65 101 -27 174 -66 254 -135 34 -30 69
-55 76 -55 8 0 17 11 20 25 3 14 7 35 10 48 4 19 22 30 91 56 135 52 142 53
163 30 25 -27 61 -123 61 -163 0 -47 -33 -135 -79 -214 -23 -37 -41 -73 -41
-78 0 -6 20 -37 45 -68 52 -67 69 -121 62 -188 -12 -102 -96 -202 -220 -262
-116 -57 -180 -69 -367 -70 -193 -1 -235 7 -370 71 -84 40 -106 57 -187 139
-50 52 -96 94 -101 94 -4 0 -51 -32 -103 -71 -161 -121 -282 -162 -405 -140
-143 27 -267 180 -281 349 -5 60 -2 77 19 123 30 65 91 130 176 188 35 23 67
53 72 65 5 14 4 56 -1 102 -12 95 0 156 42 214 59 81 155 130 295 149 43 7 85
18 92 25 8 8 22 55 32 105 22 108 59 181 117 228 54 45 103 62 176 63 l57 0 0
-44z m-185 -1576 c11 -12 46 -42 78 -67 l57 -44 0 -127 c0 -123 14 -374 25
-479 7 -59 7 -60 -90 -65 l-60 -3 -7 50 c-9 60 -78 751 -78 778 0 18 1 18 28
-1 15 -11 36 -30 47 -42z m-165 -2 c0 -68 29 -379 50 -549 11 -86 20 -177 20
-203 l0 -48 -32 7 c-50 11 -66 22 -72 52 -10 49 -67 464 -80 581 l-13 113 56
44 c31 24 59 44 64 45 4 0 7 -19 7 -42z m-213 -80 c6 -7 15 -69 22 -138 14
-151 47 -382 67 -469 8 -35 13 -66 11 -68 -3 -2 -27 17 -55 42 -35 32 -55 60
-66 93 -34 102 -86 386 -86 470 0 25 7 45 18 54 32 29 74 36 89 16z m707 -74
l89 -17 -6 -180 c-4 -99 -7 -236 -7 -304 l0 -123 -47 1 c-73 2 -96 11 -104 43
-4 16 -15 141 -24 280 -8 138 -18 268 -21 290 -5 34 -4 37 12 33 11 -3 59 -14
108 -23z m562 -78 c-17 -228 -53 -389 -101 -452 -27 -35 -72 -70 -80 -62 -2 2
4 74 15 159 10 84 22 206 26 269 10 164 10 163 75 176 30 6 58 8 63 6 4 -3 5
-46 2 -96z m-209 -3 c-17 -184 -61 -515 -71 -528 -6 -7 -37 -17 -68 -20 l-58
-7 0 311 0 311 101 0 102 0 -6 -67z"/>
<path d="M2166 2607 c-31 -23 -16 -51 31 -59 75 -12 130 -53 152 -111 16 -43
14 -62 -19 -145 -39 -96 -37 -117 10 -117 62 0 100 83 100 215 -1 120 -29 176
-105 211 -47 22 -143 25 -169 6z"/>
<path d="M1340 1252 c0 -59 88 -146 207 -206 158 -79 378 -75 489 9 64 49 54
52 -188 51 -223 -1 -223 -1 -273 25 -27 15 -85 54 -129 88 -43 34 -85 61 -92
61 -9 0 -14 -11 -14 -28z"/>
</g>
</svg>
