<?xml version="1.0" encoding="UTF-8"?>
<svg xmlns="http://www.w3.org/2000/svg" xmlns:xlink="http://www.w3.org/1999/xlink" width="120px" height="40px" viewBox="0 0 118 40" version="1.1">
<g id="surface1">
<path style=" stroke:none;fill-rule:nonzero;fill:rgb(0%,0%,0%);fill-opacity:1;" d="M 14.84375 5.046875 C 14.152344 5.242188 13.570312 5.753906 13.191406 6.503906 C 13.015625 6.839844 12.996094 6.859375 12.386719 6.921875 C 11.320312 7.035156 10.683594 7.285156 10.109375 7.816406 C 9.5 8.375 8.976562 9.367188 8.882812 10.113281 C 8.820312 10.679688 8.828125 10.667969 7.757812 10.910156 C 6.871094 11.105469 6.234375 11.429688 5.699219 11.960938 C 5.054688 12.601562 4.859375 13.121094 4.816406 14.367188 L 4.777344 15.390625 L 4.316406 15.652344 C 3.589844 16.070312 3.21875 16.449219 2.886719 17.148438 C 2.621094 17.722656 2.582031 17.882812 2.582031 18.585938 C 2.582031 20.121094 2.8125 20.890625 3.53125 21.710938 C 4.023438 22.269531 4.566406 22.613281 5.339844 22.871094 C 5.671875 22.984375 5.976562 23.09375 6.015625 23.132812 C 6.042969 23.160156 6.160156 23.839844 6.273438 24.628906 C 6.382812 25.417969 6.550781 26.449219 6.640625 26.914062 C 6.925781 28.355469 7.5625 29.347656 8.476562 29.777344 C 8.882812 29.960938 9.023438 29.972656 12.546875 29.972656 C 17.445312 29.960938 17.90625 29.878906 18.808594 28.847656 C 19.105469 28.503906 19.207031 28.300781 19.316406 27.761719 C 19.472656 27.042969 19.832031 24.125 19.832031 23.632812 C 19.832031 23.375 19.972656 23.195312 20.792969 22.378906 C 22.007812 21.152344 22.074219 21.039062 22.054688 19.851562 C 22.046875 18.96875 22.027344 18.875 21.714844 18.234375 L 21.375 17.554688 L 21.707031 16.886719 C 22.40625 15.457031 22.414062 14.683594 21.734375 13.539062 L 21.410156 13 L 22.082031 12.3125 C 22.460938 11.941406 22.792969 11.542969 22.832031 11.441406 C 22.875 11.292969 22.941406 11.253906 23.117188 11.300781 C 23.726562 11.460938 24.207031 10.613281 24.214844 9.386719 C 24.214844 8.121094 23.78125 7.460938 22.832031 7.285156 C 22.628906 7.25 22.269531 7.082031 22.027344 6.914062 C 21.410156 6.496094 21.003906 6.367188 20.203125 6.367188 C 19.640625 6.367188 19.410156 6.414062 18.964844 6.625 C 18.671875 6.765625 18.414062 6.867188 18.402344 6.859375 C 18.394531 6.839844 18.3125 6.671875 18.21875 6.476562 C 18.023438 6.058594 17.386719 5.472656 16.84375 5.214844 C 16.316406 4.972656 15.394531 4.886719 14.84375 5.046875 Z M 16.085938 5.679688 C 16.546875 5.808594 17.304688 6.523438 17.8125 7.304688 C 18.023438 7.628906 18.238281 7.898438 18.292969 7.898438 C 18.339844 7.898438 18.644531 7.75 18.964844 7.574219 C 19.933594 7.027344 20.882812 7.054688 21.511719 7.628906 C 21.660156 7.777344 21.816406 7.898438 21.851562 7.898438 C 21.964844 7.898438 22.414062 8.691406 22.515625 9.0625 C 22.644531 9.535156 22.574219 10.175781 22.3125 10.769531 C 21.980469 11.550781 21.226562 12.175781 19.703125 12.925781 C 18.984375 13.28125 18.320312 13.570312 18.238281 13.570312 C 18.144531 13.570312 17.90625 13.457031 17.703125 13.328125 C 17.214844 13.019531 16.308594 12.675781 15.753906 12.601562 C 15.15625 12.507812 14.859375 12.238281 14.417969 11.320312 C 13.855469 10.167969 13.707031 9.582031 13.699219 8.503906 C 13.699219 7.730469 13.734375 7.492188 13.910156 7.109375 C 14.1875 6.503906 14.601562 6.070312 15.175781 5.800781 C 15.710938 5.539062 15.636719 5.546875 16.085938 5.679688 Z M 12.851562 8.503906 C 12.953125 9.601562 13.226562 10.585938 13.699219 11.597656 C 14.066406 12.386719 14.105469 12.507812 13.976562 12.601562 C 13.726562 12.789062 13.828125 12.910156 14.371094 13.058594 C 16.429688 13.632812 16.769531 13.792969 17.648438 14.542969 C 17.980469 14.824219 18.3125 15.054688 18.394531 15.054688 C 18.484375 15.054688 18.550781 14.933594 18.585938 14.703125 C 18.625 14.515625 18.660156 14.3125 18.679688 14.265625 C 18.707031 14.171875 20.523438 13.464844 20.738281 13.476562 C 20.800781 13.476562 20.984375 13.753906 21.144531 14.097656 C 21.585938 15.039062 21.546875 15.410156 20.902344 16.683594 C 20.617188 17.238281 20.386719 17.742188 20.386719 17.777344 C 20.386719 17.824219 20.550781 18.046875 20.746094 18.289062 C 21.207031 18.839844 21.308594 19.117188 21.308594 19.785156 C 21.308594 21.03125 20.320312 22.074219 18.542969 22.695312 C 17.949219 22.898438 16.023438 23.085938 15.378906 22.992188 C 15.007812 22.945312 14.769531 22.816406 14.085938 22.296875 C 13.625 21.941406 13.199219 21.664062 13.144531 21.683594 C 13.035156 21.730469 13.070312 22.222656 13.199219 22.351562 C 13.441406 22.59375 13.210938 22.554688 12.617188 22.25 C 12.113281 21.988281 11.734375 21.683594 11.117188 21.039062 L 10.277344 20.1875 L 9.410156 20.835938 C 8.394531 21.597656 7.636719 21.980469 6.871094 22.128906 C 5.859375 22.3125 5.027344 22.054688 4.308594 21.320312 C 3.402344 20.398438 2.996094 18.941406 3.367188 17.972656 C 3.5625 17.453125 4.355469 16.617188 5.101562 16.144531 L 5.636719 15.800781 L 5.609375 14.65625 C 5.582031 13.644531 5.597656 13.484375 5.785156 13.152344 C 6.261719 12.25 7.160156 11.710938 8.570312 11.488281 C 9.050781 11.402344 9.445312 11.328125 9.472656 11.308594 C 9.492188 11.292969 9.585938 10.890625 9.6875 10.417969 C 9.925781 9.339844 10.203125 8.773438 10.738281 8.300781 C 11.246094 7.851562 11.59375 7.722656 12.269531 7.742188 L 12.777344 7.761719 Z M 11.972656 22.917969 L 12.332031 23.179688 L 12.386719 25.09375 C 12.425781 26.144531 12.488281 27.453125 12.546875 28.019531 C 12.589844 28.578125 12.601562 29.070312 12.5625 29.097656 C 12.527344 29.136719 12.222656 29.191406 11.890625 29.230469 L 11.273438 29.292969 L 11.21875 28.941406 C 11.144531 28.476562 10.515625 22.15625 10.515625 21.859375 C 10.515625 21.652344 10.5625 21.671875 11.058594 22.148438 C 11.363281 22.425781 11.769531 22.769531 11.972656 22.917969 Z M 9.824219 23.882812 C 9.90625 24.933594 10.054688 26.414062 10.15625 27.183594 C 10.441406 29.414062 10.421875 29.488281 9.796875 29.265625 C 9.574219 29.191406 9.484375 29.089844 9.410156 28.828125 C 9.324219 28.503906 8.734375 24.238281 8.632812 23.140625 L 8.578125 22.628906 L 9.113281 22.238281 C 9.398438 22.027344 9.648438 21.878906 9.65625 21.914062 C 9.667969 21.953125 9.742188 22.835938 9.824219 23.882812 Z M 7.824219 22.972656 C 7.886719 23.039062 7.933594 23.261719 7.933594 23.484375 C 7.933594 23.976562 8.347656 27.117188 8.542969 28.09375 C 8.617188 28.496094 8.671875 28.855469 8.652344 28.914062 C 8.632812 28.96875 8.421875 28.839844 8.183594 28.625 C 7.691406 28.1875 7.609375 27.972656 7.25 26.21875 C 6.898438 24.535156 6.78125 23.363281 6.925781 23.179688 C 7.167969 22.890625 7.628906 22.777344 7.824219 22.972656 Z M 13.847656 23.570312 C 14.269531 23.644531 14.683594 23.726562 14.757812 23.746094 C 14.878906 23.78125 14.886719 23.996094 14.832031 25.25 C 14.804688 26.058594 14.777344 27.277344 14.769531 27.945312 L 14.757812 29.183594 L 14.324219 29.183594 C 13.707031 29.183594 13.496094 29.109375 13.429688 28.875 C 13.402344 28.765625 13.3125 27.703125 13.238281 26.535156 C 13.164062 25.351562 13.082031 24.171875 13.050781 23.902344 C 13.015625 23.644531 13.015625 23.421875 13.035156 23.421875 C 13.0625 23.421875 13.421875 23.484375 13.847656 23.570312 Z M 18.957031 25.566406 C 18.707031 27.582031 18.375 28.449219 17.703125 28.847656 L 17.40625 29.023438 L 17.472656 28.707031 C 17.5625 28.195312 17.785156 26.144531 17.859375 25.15625 C 17.914062 24.320312 17.933594 24.257812 18.117188 24.246094 C 18.21875 24.246094 18.476562 24.171875 18.679688 24.078125 L 19.046875 23.914062 L 19.078125 24.144531 C 19.09375 24.265625 19.039062 24.90625 18.957031 25.566406 Z M 16.234375 24.265625 C 16.410156 24.3125 16.714844 24.347656 16.910156 24.347656 L 17.257812 24.347656 L 17.214844 24.738281 C 17.175781 24.960938 17.054688 25.984375 16.925781 27.015625 C 16.796875 28.039062 16.679688 28.949219 16.640625 29.023438 C 16.613281 29.109375 16.375 29.191406 16.042969 29.246094 L 15.496094 29.339844 L 15.496094 24.0625 L 15.710938 24.125 C 15.820312 24.164062 16.058594 24.230469 16.234375 24.265625 Z M 16.234375 24.265625 "/>
<path style=" stroke:none;fill-rule:nonzero;fill:rgb(0%,0%,0%);fill-opacity:1;" d="M 104.300781 8.085938 C 104.023438 8.234375 103.113281 8.792969 102.28125 9.320312 C 99.6875 10.984375 98.34375 11.710938 97.050781 12.128906 C 96.183594 12.40625 95.933594 12.128906 95.75 10.632812 C 95.492188 8.605469 95.011719 7.945312 93.765625 7.964844 C 92.132812 7.992188 89.792969 9.582031 87.855469 11.988281 C 86.285156 13.929688 85.152344 16.265625 85.777344 16.265625 C 86 16.265625 86.332031 15.828125 87.015625 14.664062 C 88.554688 12.027344 90.484375 10.039062 92.191406 9.292969 C 93.085938 8.914062 93.203125 9.078125 93.324219 10.847656 C 93.40625 12.015625 93.425781 12.101562 93.683594 12.425781 C 94.210938 13.078125 94.386719 13.152344 95.269531 13.140625 C 96.238281 13.132812 96.820312 12.972656 98.296875 12.304688 C 98.914062 12.027344 99.449219 11.804688 99.488281 11.804688 C 99.515625 11.804688 99.164062 12.230469 98.691406 12.75 C 98.046875 13.476562 97.171875 14.730469 95.03125 17.984375 C 91.398438 23.503906 90.546875 24.636719 88.75 26.460938 C 87.9375 27.277344 86.730469 28.242188 86.09375 28.570312 C 85.925781 28.652344 85.601562 28.746094 85.371094 28.78125 C 85.140625 28.808594 84.957031 28.867188 84.957031 28.914062 C 84.957031 29.0625 84.570312 29.191406 84.007812 29.238281 C 83.695312 29.257812 83.121094 29.339844 82.742188 29.40625 C 82.367188 29.480469 81.804688 29.5625 81.5 29.601562 C 81.195312 29.628906 80.59375 29.722656 80.160156 29.804688 C 78.769531 30.054688 77.441406 29.859375 76.054688 29.183594 C 73.1875 27.777344 72.285156 25.167969 73.714844 22.398438 C 74.460938 20.9375 75.4375 20.019531 77.078125 19.230469 C 78.160156 18.699219 79.007812 18.464844 80.632812 18.253906 C 81.71875 18.105469 81.867188 18.105469 82.613281 18.242188 C 84.230469 18.539062 85.722656 19.535156 86.277344 20.667969 C 86.582031 21.292969 86.582031 21.347656 86.3125 22.285156 C 86.027344 23.269531 85.601562 23.949219 84.820312 24.710938 C 83.675781 25.800781 82.421875 26.28125 80.53125 26.355469 L 79.378906 26.402344 L 77.726562 25.9375 C 76.8125 25.679688 76.011719 25.464844 75.945312 25.464844 C 75.707031 25.464844 75.824219 25.835938 76.128906 26.023438 C 76.5625 26.300781 78.296875 26.832031 79.164062 26.960938 C 80.375 27.136719 81.90625 27.027344 82.863281 26.691406 C 84.792969 26.023438 86.367188 24.609375 87.035156 22.957031 C 87.136719 22.695312 87.21875 22.191406 87.246094 21.644531 C 87.28125 20.902344 87.253906 20.632812 87.089844 20.09375 C 86.738281 18.929688 85.835938 17.957031 84.421875 17.25 C 82.539062 16.292969 79.21875 16.347656 76.757812 17.371094 C 73.933594 18.550781 72.253906 20.761719 71.859375 23.847656 C 71.738281 24.824219 71.8125 25.417969 72.171875 26.308594 C 72.800781 27.871094 73.785156 28.894531 75.464844 29.738281 C 76.066406 30.039062 76.859375 30.351562 77.226562 30.4375 C 77.597656 30.53125 77.9375 30.632812 77.976562 30.667969 C 78.011719 30.707031 77.726562 30.761719 77.320312 30.789062 C 76.398438 30.863281 75.226562 31.097656 74.8125 31.300781 C 74.597656 31.402344 74.480469 31.535156 74.460938 31.671875 C 74.433594 31.839844 74.386719 31.878906 74.277344 31.820312 C 74.191406 31.785156 73.960938 31.738281 73.777344 31.710938 C 73.511719 31.683594 73.417969 31.710938 73.371094 31.832031 C 73.324219 31.933594 73.363281 32.027344 73.453125 32.082031 C 73.683594 32.203125 73.472656 32.621094 73.179688 32.621094 C 72.707031 32.621094 72.320312 32.945312 72.320312 33.335938 C 72.320312 33.632812 74.582031 33.261719 74.765625 32.9375 C 74.8125 32.84375 74.996094 32.613281 75.171875 32.417969 L 75.476562 32.0625 L 75.171875 32.054688 C 74.996094 32.054688 75.328125 31.953125 75.898438 31.832031 C 76.472656 31.710938 77.117188 31.542969 77.328125 31.460938 C 77.660156 31.320312 77.992188 31.300781 79.515625 31.308594 L 81.324219 31.328125 L 81.960938 31.003906 C 82.320312 30.828125 83.148438 30.53125 83.804688 30.34375 C 86.425781 29.609375 87.917969 28.996094 89.339844 28.066406 C 91.453125 26.671875 93.261719 24.675781 95.511719 21.21875 C 96.671875 19.433594 97.171875 18.558594 98.730469 15.613281 C 99.394531 14.359375 100.113281 13.058594 100.335938 12.722656 C 101.265625 11.28125 102.328125 10.390625 104.097656 9.527344 C 104.761719 9.199219 105.351562 8.882812 105.410156 8.808594 C 105.628906 8.550781 105.640625 8.234375 105.4375 8.011719 C 105.179688 7.730469 104.917969 7.75 104.300781 8.085938 Z M 104.300781 8.085938 "/>
<path style=" stroke:none;fill-rule:nonzero;fill:rgb(0%,0%,0%);fill-opacity:1;" d="M 112.078125 8.03125 C 111.230469 8.328125 110.113281 8.921875 109.339844 9.46875 C 108.601562 10 106.710938 11.847656 104.097656 14.617188 C 101.40625 17.472656 100.195312 18.410156 98.75 18.734375 C 97.652344 18.976562 97.640625 18.988281 97.660156 19.285156 C 97.6875 19.609375 97.769531 19.664062 98.371094 19.738281 C 99.558594 19.898438 99.746094 20.019531 100.1875 20.957031 C 100.527344 21.671875 100.527344 22.015625 100.179688 23.707031 C 100.011719 24.507812 99.902344 25.335938 99.902344 25.753906 C 99.902344 27.109375 100.546875 28.921875 101.277344 29.582031 C 101.71875 29.992188 102.261719 30.148438 102.964844 30.082031 C 103.8125 30.007812 104.3125 29.664062 105.851562 28.113281 C 107.722656 26.21875 108.277344 25.371094 107.640625 25.371094 C 107.429688 25.371094 107.160156 25.621094 105.730469 27.203125 C 104.800781 28.242188 103.941406 28.929688 103.277344 29.199219 C 102.75 29.40625 102.566406 29.320312 102.28125 28.734375 C 102.125 28.390625 102.097656 28.226562 102.144531 27.667969 C 102.179688 27.296875 102.308594 26.664062 102.4375 26.253906 C 102.640625 25.621094 102.679688 25.34375 102.6875 24.339844 C 102.6875 23.234375 102.667969 23.121094 102.335938 22.128906 C 101.867188 20.695312 101.292969 19.953125 100.222656 19.394531 L 99.855469 19.210938 L 100.59375 18.960938 C 102.640625 18.261719 103.820312 17.359375 108.019531 13.28125 C 112.070312 9.359375 112.417969 9.042969 113.304688 8.644531 C 113.820312 8.402344 114.4375 8.410156 114.835938 8.652344 C 115.175781 8.855469 115.160156 8.699219 114.972656 10.214844 C 114.917969 10.640625 114.9375 10.6875 115.261719 11.050781 C 115.703125 11.535156 116.101562 11.570312 116.664062 11.160156 C 117.199219 10.769531 117.335938 10.53125 117.335938 9.992188 C 117.328125 9.359375 117.078125 8.847656 116.542969 8.390625 C 115.96875 7.890625 115.59375 7.808594 113.996094 7.808594 C 112.851562 7.808594 112.59375 7.84375 112.078125 8.03125 Z M 112.078125 8.03125 "/>
<path style=" stroke:none;fill-rule:nonzero;fill:rgb(0%,0%,0%);fill-opacity:1;" d="M 61.101562 8.242188 C 60.605469 8.765625 59.859375 9.960938 57.375 14.171875 C 54.027344 19.859375 53.300781 20.964844 51.445312 23.214844 C 48.503906 26.804688 45.605469 28.800781 42 29.757812 C 40.957031 30.039062 40.828125 30.046875 39.019531 30.054688 C 37.257812 30.066406 37.082031 30.046875 36.484375 29.84375 C 34.277344 29.089844 32.339844 27.433594 32.007812 26.011719 C 31.730469 24.859375 32.09375 23.058594 32.847656 21.792969 C 33.789062 20.222656 35.894531 18.71875 37.710938 18.316406 C 38.429688 18.167969 41.511719 18.1875 42.292969 18.355469 C 43.640625 18.644531 44.710938 19.414062 45.183594 20.425781 C 45.394531 20.882812 45.429688 21.078125 45.429688 21.839844 C 45.429688 22.59375 45.394531 22.796875 45.191406 23.234375 C 44.71875 24.230469 43.964844 24.945312 42.753906 25.53125 C 41.648438 26.058594 40.964844 26.207031 39.664062 26.207031 C 37.8125 26.207031 36.152344 26.320312 36.1875 26.429688 C 36.207031 26.488281 36.445312 26.617188 36.722656 26.71875 C 37.148438 26.867188 37.46875 26.894531 38.972656 26.90625 C 41.078125 26.90625 41.398438 26.832031 43.078125 26.011719 C 44.101562 25.5 44.316406 25.351562 44.980469 24.683594 C 46.34375 23.300781 46.675781 21.96875 46.113281 20.113281 C 45.613281 18.496094 44.15625 17.238281 42.339844 16.878906 C 40.671875 16.542969 38.21875 16.609375 36.660156 17.015625 C 35.828125 17.230469 34.628906 17.777344 33.992188 18.214844 C 32.628906 19.164062 31.242188 21.273438 31.003906 22.777344 C 30.679688 24.738281 31.066406 26.449219 32.148438 27.808594 C 33.585938 29.636719 36.355469 30.667969 39.839844 30.667969 C 41.214844 30.667969 42.007812 30.539062 43.417969 30.066406 C 47.277344 28.773438 50.671875 25.902344 53.90625 21.191406 C 55.253906 19.230469 55.9375 18.09375 58.390625 13.707031 C 58.816406 12.945312 58.945312 12.769531 58.898438 13.011719 C 58.261719 16.570312 58.097656 20.484375 58.472656 23.410156 C 58.75 25.566406 58.742188 27.386719 58.445312 28.699219 C 58.105469 30.25 58.085938 30.4375 58.242188 30.566406 C 58.464844 30.753906 58.816406 30.335938 59.609375 28.902344 C 59.996094 28.214844 60.796875 26.765625 61.390625 25.695312 C 64.941406 19.3125 67.644531 15.09375 69.96875 12.3125 C 71.351562 10.660156 72.570312 9.574219 73.324219 9.3125 C 73.640625 9.199219 73.648438 9.199219 74.3125 9.851562 C 74.929688 10.464844 75.003906 10.5 75.390625 10.5 C 75.910156 10.5 76.285156 10.214844 76.515625 9.648438 C 76.738281 9.089844 76.636719 8.726562 76.175781 8.328125 C 75.722656 7.9375 75.390625 7.851562 74.488281 7.925781 C 73.34375 8.011719 72.253906 8.691406 70.660156 10.308594 C 68.113281 12.890625 65.207031 17.277344 61.34375 24.332031 C 60.726562 25.464844 60.199219 26.382812 60.179688 26.375 C 60.164062 26.355469 60.226562 25.863281 60.328125 25.277344 C 60.660156 23.195312 60.882812 19.886719 60.882812 16.820312 C 60.882812 13.867188 61.132812 11.199219 61.582031 9.347656 C 61.703125 8.828125 61.804688 8.300781 61.804688 8.152344 C 61.804688 7.789062 61.519531 7.824219 61.101562 8.242188 Z M 61.101562 8.242188 "/>
</g>
</svg>
