<?xml version="1.0" standalone="no"?>
<!DOCTYPE svg PUBLIC "-//W3C//DTD SVG 20010904//EN"
 "http://www.w3.org/TR/2001/REC-SVG-20010904/DTD/svg10.dtd">
<svg version="1.0" xmlns="http://www.w3.org/2000/svg"
 width="1279.000000pt" height="430.000000pt" viewBox="0 0 1279.000000 430.000000"
 preserveAspectRatio="xMidYMid meet">
<metadata>
Created by potrace 1.16, written by Peter Selinger 2001-2019
</metadata>
<g transform="translate(0.000000,430.000000) scale(0.100000,-0.100000)"
fill="#000000" stroke="none">
<path d="M1609 3757 c-75 -21 -138 -76 -179 -157 -19 -36 -21 -38 -87 -45
-116 -12 -185 -39 -247 -96 -66 -60 -123 -167 -133 -247 -7 -61 -6 -60 -122
-86 -96 -21 -165 -56 -223 -113 -70 -69 -91 -125 -96 -259 l-4 -110 -50 -28
c-79 -45 -119 -86 -155 -161 -29 -62 -33 -79 -33 -155 0 -165 25 -248 103
-336 53 -60 112 -97 196 -125 36 -12 69 -24 73 -28 3 -3 16 -76 28 -161 12
-85 30 -196 40 -246 31 -155 100 -262 199 -308 44 -20 59 -21 441 -21 531 1
581 10 679 121 32 37 43 59 55 117 17 77 56 391 56 444 0 28 15 47 104 135
132 132 139 144 137 272 -1 95 -3 105 -37 174 l-37 73 36 72 c76 154 77 237 3
360 l-35 58 73 74 c41 40 77 83 81 94 5 16 12 20 31 15 66 -17 118 74 119 206
0 136 -47 207 -150 226 -22 4 -61 22 -87 40 -67 45 -111 59 -198 59 -61 0 -86
-5 -134 -28 -32 -15 -60 -26 -61 -25 -1 2 -10 20 -20 41 -21 45 -90 108 -149
136 -57 26 -157 35 -217 18z m135 -68 c50 -14 132 -91 187 -175 23 -35 46 -64
52 -64 5 0 38 16 73 35 105 59 208 56 276 -6 16 -16 33 -29 37 -29 12 0 61
-85 72 -125 14 -51 6 -120 -22 -184 -36 -84 -118 -151 -283 -232 -78 -38 -150
-69 -159 -69 -10 0 -36 12 -58 26 -53 33 -151 70 -211 78 -65 10 -97 39 -145
138 -61 124 -77 187 -78 303 0 83 4 109 23 150 30 65 75 112 137 141 58 28 50
27 99 13z m-351 -304 c11 -118 41 -224 92 -333 40 -85 44 -98 30 -108 -27 -20
-16 -33 43 -49 223 -62 260 -79 355 -160 36 -30 72 -55 81 -55 10 0 17 13 21
38 4 20 8 42 10 47 3 10 200 86 223 85 7 0 27 -30 44 -67 48 -101 44 -141 -26
-278 -31 -60 -56 -114 -56 -118 0 -5 18 -29 39 -55 50 -59 61 -89 61 -161 0
-134 -107 -246 -300 -313 -64 -22 -273 -42 -343 -32 -40 5 -66 19 -140 75 -50
38 -96 68 -102 66 -12 -5 -8 -58 6 -72 26 -26 1 -22 -63 11 -55 28 -96 61
-163 130 l-91 92 -94 -70 c-110 -82 -192 -123 -275 -139 -110 -20 -200 8 -278
87 -98 99 -142 256 -102 360 21 56 107 146 188 197 l58 37 -3 123 c-3 109 -1
126 19 162 52 97 149 155 302 179 52 9 95 17 98 19 2 2 12 45 23 96 26 116 56
177 114 228 55 48 93 62 166 60 l55 -2 8 -80z m-95 -1551 l39 -28 6 -206 c4
-113 11 -254 17 -315 5 -60 6 -113 2 -116 -4 -4 -37 -10 -73 -14 l-67 -7 -6
38 c-8 50 -76 730 -76 762 0 22 5 20 59 -31 33 -30 77 -67 99 -83z m-233 -104
c9 -113 25 -272 36 -355 31 -240 29 -248 -39 -224 -24 8 -34 19 -42 47 -9 35
-73 494 -84 612 l-6 55 58 42 c31 23 58 39 59 35 1 -4 9 -99 18 -212z m-217
98 c7 -7 12 -31 12 -55 0 -53 45 -391 66 -496 8 -43 14 -82 12 -88 -2 -6 -25
8 -51 31 -53 47 -62 70 -101 259 -38 181 -51 307 -35 327 26 31 76 43 97 22z
m653 -64 c46 -8 91 -17 99 -19 13 -4 14 -27 8 -162 -3 -87 -6 -218 -7 -290
l-1 -133 -47 0 c-67 0 -90 8 -97 33 -3 12 -13 126 -21 252 -8 127 -17 254 -20
283 -4 28 -4 52 -2 52 3 0 42 -7 88 -16z m554 -215 c-27 -217 -63 -310 -136
-353 l-32 -19 7 34 c10 55 34 276 42 382 6 90 8 97 28 98 11 0 39 8 61 18 l40
18 3 -25 c2 -13 -4 -82 -13 -153z m-295 140 c19 -5 52 -9 73 -9 l38 0 -5 -42
c-4 -24 -17 -134 -31 -245 -14 -110 -27 -208 -31 -216 -3 -9 -29 -18 -65 -24
l-59 -10 0 284 0 284 23 -7 c12 -4 38 -11 57 -15z"/>
<path d="M11307 3430 c-30 -16 -129 -76 -219 -133 -281 -179 -427 -257 -567
-302 -94 -30 -121 0 -141 161 -28 218 -80 289 -215 287 -177 -3 -431 -174
-641 -433 -170 -209 -293 -460 -225 -460 24 0 60 47 134 172 167 284 376 498
561 578 97 41 110 23 123 -167 9 -126 11 -135 39 -170 57 -70 76 -78 172 -77
105 1 168 18 328 90 67 30 125 54 129 54 3 0 -35 -46 -86 -102 -70 -78 -165
-213 -397 -563 -394 -594 -486 -716 -681 -912 -88 -88 -219 -192 -288 -227
-18 -9 -53 -19 -78 -23 -25 -3 -45 -9 -45 -14 0 -16 -42 -30 -103 -35 -34 -2
-96 -11 -137 -18 -41 -8 -102 -17 -135 -21 -33 -3 -98 -13 -145 -22 -151 -27
-295 -6 -445 67 -311 151 -409 432 -254 730 81 157 187 256 365 341 117 57
209 82 385 105 118 16 134 16 215 1 175 -32 337 -139 397 -261 33 -67 33 -73
4 -174 -31 -106 -77 -179 -162 -261 -124 -117 -260 -169 -465 -177 l-125 -5
-179 50 c-99 28 -186 51 -193 51 -26 0 -13 -40 20 -60 47 -30 235 -87 329
-101 131 -19 297 -7 401 29 209 72 380 224 452 402 11 28 20 82 23 141 4 80 1
109 -17 167 -38 125 -136 230 -289 306 -204 103 -564 97 -831 -13 -306 -127
-488 -365 -531 -697 -13 -105 -5 -169 34 -265 68 -168 175 -278 357 -369 65
-32 151 -66 191 -75 40 -10 77 -21 81 -25 4 -4 -27 -10 -71 -13 -100 -8 -227
-33 -272 -55 -23 -11 -36 -25 -38 -40 -3 -18 -8 -22 -20 -16 -9 4 -34 9 -54
12 -29 3 -39 0 -44 -13 -5 -11 -1 -21 9 -27 25 -13 2 -58 -30 -58 -51 0 -93
-35 -93 -77 0 -32 245 8 265 43 5 10 25 35 44 56 l33 38 -33 1 c-19 0 17 11
79 24 62 13 132 31 155 40 36 15 72 17 237 16 l196 -2 69 35 c39 19 129 51
200 71 284 79 446 145 600 245 229 150 425 365 669 737 126 192 180 286 349
603 72 135 150 275 174 311 101 155 216 251 408 344 72 35 136 69 142 77 24
28 25 62 3 86 -28 30 -56 28 -123 -8z"/>
<path d="M12150 3436 c-92 -32 -213 -96 -297 -155 -80 -57 -285 -256 -568
-554 -292 -307 -423 -408 -580 -443 -119 -26 -120 -27 -118 -59 3 -35 12 -41
77 -49 129 -17 149 -30 197 -131 37 -77 37 -114 -1 -296 -18 -86 -30 -175 -30
-220 0 -146 70 -341 149 -412 48 -44 107 -61 183 -54 92 8 146 45 313 212 203
204 263 295 194 295 -23 0 -52 -27 -207 -197 -101 -112 -194 -186 -266 -215
-57 -22 -77 -13 -108 50 -17 37 -20 55 -15 115 4 40 18 108 32 152 22 68 26
98 27 206 0 119 -2 131 -38 238 -51 154 -113 234 -229 294 l-40 20 80 27 c222
75 350 172 805 611 439 422 477 456 573 499 56 26 123 25 166 -1 37 -22 35 -5
15 -168 -6 -46 -4 -51 31 -90 48 -52 91 -56 152 -12 58 42 73 68 73 126 -1 68
-28 123 -86 172 -62 54 -103 63 -276 63 -124 0 -152 -4 -208 -24z"/>
<path d="M6624 3413 c-54 -56 -135 -185 -404 -638 -363 -612 -442 -731 -643
-973 -319 -386 -633 -601 -1024 -704 -113 -30 -127 -31 -323 -32 -191 -1 -210
1 -275 23 -239 81 -449 259 -485 412 -30 124 9 318 91 454 102 169 330 331
527 374 78 16 412 14 497 -4 146 -31 262 -114 313 -223 23 -49 27 -70 27 -152
0 -81 -4 -103 -26 -150 -51 -107 -133 -184 -264 -247 -120 -57 -194 -73 -335
-73 -201 0 -381 -12 -377 -24 2 -6 28 -20 58 -31 46 -16 81 -19 244 -20 228 0
263 8 445 96 111 55 134 71 206 143 148 149 184 292 123 492 -54 174 -212 309
-409 348 -181 36 -447 29 -616 -15 -90 -23 -220 -82 -289 -129 -148 -102 -298
-329 -324 -491 -35 -211 7 -395 124 -541 156 -197 456 -308 834 -308 149 0
235 14 388 65 418 139 786 448 1137 955 146 211 220 333 486 805 46 82 60 101
55 75 -69 -383 -87 -804 -46 -1119 30 -232 29 -428 -3 -569 -37 -167 -39 -187
-22 -201 24 -20 62 25 148 179 42 74 129 230 193 345 385 687 678 1141 930
1440 150 178 282 295 364 323 34 12 35 12 107 -58 67 -66 75 -70 117 -70 56 0
97 31 122 92 24 60 13 99 -37 142 -49 42 -85 51 -183 43 -124 -9 -242 -82
-415 -256 -276 -278 -591 -750 -1010 -1509 -67 -122 -124 -221 -126 -220 -2 2
5 55 16 118 36 224 60 580 60 910 0 318 27 605 76 804 13 56 24 113 24 129 0
39 -31 35 -76 -10z"/>
</g>
</svg>
