<!-- Generated by IcoMoon.io -->
<svg version="1.1" xmlns="http://www.w3.org/2000/svg" width="1024" height="1024" viewBox="0 0 1024 1024">
<title></title>
<g id="icomoon-ignore">
</g>
<path d="M512 92.245c136.704 0 152.917 0.512 206.891 2.987 55.808 2.56 113.28 15.275 153.941 55.936 41.045 41.045 53.376 97.963 55.936 153.941 2.475 53.973 2.987 70.187 2.987 206.891s-0.512 152.917-2.987 206.891c-2.517 55.509-15.531 113.536-55.936 153.941-41.045 41.045-97.92 53.376-153.941 55.936-53.973 2.475-70.187 2.987-206.891 2.987s-152.917-0.512-206.891-2.987c-55.083-2.517-113.877-15.829-153.941-55.936-40.832-40.832-53.376-98.304-55.936-153.941-2.475-53.973-2.987-70.187-2.987-206.891s0.512-152.917 2.987-206.891c2.517-55.296 15.659-113.664 55.936-153.941 40.96-40.96 98.091-53.376 153.941-55.936 53.973-2.475 70.187-2.987 206.891-2.987zM512 0c-139.051 0-156.501 0.597-211.115 3.072-79.147 3.627-157.739 25.643-214.955 82.859-57.429 57.429-79.232 135.851-82.859 214.955-2.475 54.613-3.072 72.064-3.072 211.115s0.597 156.501 3.072 211.115c3.627 79.061 25.728 157.867 82.859 214.955 57.387 57.387 135.936 79.232 214.955 82.859 54.613 2.475 72.064 3.072 211.115 3.072s156.501-0.597 211.115-3.072c79.104-3.627 157.781-25.685 214.955-82.859 57.472-57.472 79.232-135.851 82.859-214.955 2.475-54.613 3.072-72.064 3.072-211.115s-0.597-156.501-3.072-211.115c-3.627-79.147-25.685-157.781-82.859-214.955-57.301-57.301-136.064-79.275-214.955-82.859-54.613-2.475-72.064-3.072-211.115-3.072z"></path>
<path d="M512 249.088c-145.195 0-262.912 117.717-262.912 262.912s117.717 262.912 262.912 262.912 262.912-117.717 262.912-262.912c0-145.195-117.717-262.912-262.912-262.912zM512 682.667c-94.251 0-170.667-76.416-170.667-170.667s76.416-170.667 170.667-170.667 170.667 76.416 170.667 170.667-76.416 170.667-170.667 170.667z"></path>
<path d="M846.763 238.677c0 33.932-27.508 61.44-61.44 61.44s-61.44-27.508-61.44-61.44c0-33.932 27.508-61.44 61.44-61.44s61.44 27.508 61.44 61.44z"></path>
</svg>
